<?xml version="1.0" encoding="iso-8859-1"?>
<!-- Generator: Adobe Illustrator 22.1.0, SVG Export Plug-In . SVG Version: 6.00 Build 0)  -->
<svg xmlns="http://www.w3.org/2000/svg" xmlns:xlink="http://www.w3.org/1999/xlink" version="1.1" id="Layer_1" x="0px" y="0px" viewBox="0 0 64 64" style="enable-background:new 0 0 64 64;" xml:space="preserve" width="64px" height="64px">
<g>
</g>
<linearGradient id="SVGID_1__58318" gradientUnits="userSpaceOnUse" x1="32" y1="4.8333" x2="32" y2="59.0977" spreadMethod="reflect">
	<stop offset="0" style="stop-color:#1A6DFF"/>
	<stop offset="1" style="stop-color:#C822FF"/>
</linearGradient>
<path style="fill:url(#SVGID_1__58318);" d="M57.242,30.23l-0.006,0.005c-0.473-1.805-1.619-3.318-3.229-4.262  c-0.427-0.25-0.874-0.445-1.331-0.598c0.204-0.357,0.37-0.699,0.484-1.018c0.542-1.235,0.833-2.586,0.841-3.981  c0.004-0.824-0.064-1.659-0.302-2.49c-0.36-1.26-1.748-5.379-1.748-5.379s0.002,0.025,0.004,0.052  c-0.856-2.564-2.584-4.703-4.938-6.06C45.31,5.509,43.417,5,41.5,5c-0.962,0-1.931,0.132-2.885,0.39  c-1.413,0.379-2.744,1.043-3.897,1.938C34.241,7.282,33.75,7.25,33.25,7.25c-7.221,0-11.438,3.569-12.903,5.829  C19.239,10.691,17,9,13.625,9C12.75,9,10.875,9,9,9.75c-2.877,1.151-5,3.627-5,7.226c0,1.945,0.5,3.125,1.626,4.47  c-0.06,1.067,0.053,2.123,0.328,3.083l1.854,7.206c0.642,2.243,2.066,4.159,3.931,5.457c-0.646,1.287-1.009,2.712-1.053,4.195  c-0.078,2.672,0.892,5.218,2.739,7.179l6.723,7.07C22.028,57.633,24.756,59,27.5,59c0.971,0,1.937-0.166,2.873-0.445  c3.646-1.094,6.245-4.301,6.903-8.056l0.479-2.744c0.889,0.907,1.906,1.698,3.037,2.353C42.909,51.328,45.25,52,47.75,52  c1.246,0,2.493-0.169,3.701-0.493C55.074,50.538,60,46.601,60,40.976C60,37.851,57.242,30.23,57.242,30.23z M12.615,30.385  l-1.818-7.077c-0.319-1.115-0.211-2.268,0.23-3.278C9.798,19.118,9,17.656,9,16.012C9,13.255,11.243,11,14,11s5,2.255,5,5.012  c0,0.701-0.145,1.368-0.406,1.975c0.888,0.652,1.531,1.575,1.839,2.652l1.818,7.076c0.736,2.572-0.803,5.345-3.453,6.103  c-0.447,0.129-0.911,0.194-1.376,0.194C15.202,34.012,13.226,32.521,12.615,30.385z M34.061,39.866l-1.71,9.798  c-0.329,1.878-1.665,3.381-3.488,3.928c-0.466,0.14-0.949,0.211-1.437,0.211c-1.372,0-2.698-0.572-3.64-1.571l-6.738-7.087  c-1.9-2.018-1.805-5.188,0.202-7.078c1.968-1.854,5.055-1.8,6.956,0.098l0.004-0.022c0.232-1.32,0.959-2.465,2.047-3.231  c1.094-0.771,2.422-1.066,3.745-0.833C32.717,34.555,34.538,37.151,34.061,39.866z M35.873,26.092  c-0.111,0.341-0.261,0.672-0.446,0.988c-0.677,1.151-1.762,1.971-3.054,2.306c-0.409,0.107-0.833,0.161-1.258,0.161  c-0.002,0-0.004,0-0.006,0c-2.272,0-4.261-1.539-4.833-3.744l-1.348-5.157c-0.619-2.31-0.297-4.745,0.912-6.84  c1.211-2.097,3.164-3.595,5.501-4.221c1.311-0.352,2.674-0.399,3.988-0.154c1.069-0.998,2.369-1.725,3.804-2.109  c2.337-0.632,4.781-0.309,6.879,0.907c2.095,1.207,3.594,3.162,4.22,5.502c0.582,2.171,1.227,4.503,1.227,4.503l0.021,0.084  c0.099,0.399,0.146,0.81,0.145,1.219c-0.013,2.303-1.581,4.293-3.814,4.839c-1.544,0.37-3.074-0.008-4.218-0.88  c-0.498,1.639-1.818,2.974-3.591,3.407C38.515,27.261,37.006,26.916,35.873,26.092z M55.656,42.484  c-1.211,2.095-3.163,3.593-5.496,4.217c-0.771,0.207-1.563,0.312-2.354,0.312c-1.576,0-3.139-0.42-4.517-1.214  c-2.098-1.212-3.596-3.165-4.222-5.502c-0.458-1.707-0.957-3.543-1.144-4.229l-0.001-0.001l-0.078-0.287  c-0.117-0.431-0.177-0.872-0.177-1.313c-0.003-2.246,1.513-4.231,3.684-4.824c1.562-0.43,3.153-0.062,4.351,0.851  c0.112-0.351,0.265-0.691,0.456-1.017c0.677-1.151,1.763-1.971,3.057-2.305c1.285-0.337,2.629-0.148,3.781,0.526  c1.154,0.677,1.975,1.763,2.311,3.058l1.269,4.892C57.192,37.953,56.869,40.389,55.656,42.484z"/>
<linearGradient id="SVGID_2__58318" gradientUnits="userSpaceOnUse" x1="32.938" y1="10.0083" x2="32.938" y2="50.9445" spreadMethod="reflect">
	<stop offset="0" style="stop-color:#6DC7FF"/>
	<stop offset="1" style="stop-color:#E6ABFF"/>
</linearGradient>
<path style="fill:url(#SVGID_2__58318);" d="M17.422,31.012c-0.87,0-1.671-0.573-1.922-1.451l-1.798-6.999  c-0.304-1.063,0.312-2.169,1.373-2.473c1.063-0.307,2.17,0.312,2.473,1.373l1.798,6.999c0.304,1.063-0.312,2.169-1.373,2.473  C17.789,30.986,17.603,31.012,17.422,31.012z M14,14.012c-1.105,0-2,0.895-2,2s0.895,2,2,2s2-0.895,2-2S15.104,14.012,14,14.012z   M48.567,19.033c0,0-0.648-2.343-1.233-4.527c-0.418-1.563-1.421-2.871-2.824-3.681c-1.401-0.812-3.035-1.027-4.599-0.605  c-1.503,0.403-2.759,1.356-3.573,2.675c-1.313-0.641-2.795-0.792-4.22-0.411c-1.563,0.419-2.869,1.421-3.678,2.822  c-0.809,1.401-1.023,3.033-0.608,4.582l1.35,5.163c0.233,0.9,1.045,1.498,1.934,1.497c0.166,0,0.335-0.021,0.504-0.064  c1.068-0.277,1.711-1.369,1.432-2.438l-1.353-5.177c-0.142-0.531-0.069-1.086,0.206-1.562c0.274-0.476,0.718-0.816,1.249-0.959  c1.097-0.294,2.226,0.359,2.52,1.455c0.002,0.006,1.198,4.711,1.199,4.718c0.224,0.913,1.041,1.525,1.941,1.525  c0.157,0,0.317-0.019,0.477-0.057c1.073-0.263,1.73-1.345,1.469-2.418c0,0-1.263-4.944-1.269-4.964  c-0.143-0.531-0.069-1.086,0.206-1.563c0.275-0.477,0.72-0.817,1.251-0.96c0.53-0.143,1.087-0.07,1.564,0.206  c0.477,0.275,0.818,0.72,0.961,1.252c0.573,2.141,1.209,4.435,1.21,4.441c0.224,0.913,1.041,1.536,1.941,1.536  c0.157,0,0.317-0.019,0.477-0.057c0.911-0.223,1.522-1.047,1.526-1.943C48.626,19.358,48.607,19.195,48.567,19.033z M49.384,43.804  c3.227-0.864,5.147-4.192,4.287-7.403l-1.268-4.891c-0.277-1.068-1.37-1.713-2.438-1.434c-1.069,0.276-1.711,1.368-1.434,2.438  l1.271,4.906c0.142,0.531,0.069,1.086-0.206,1.562c-0.274,0.476-0.718,0.816-1.249,0.959c-0.533,0.141-1.087,0.069-1.562-0.206  c-0.476-0.274-0.816-0.718-0.959-1.249c-0.581-2.169-1.229-4.546-1.229-4.546c-0.292-1.065-1.394-1.694-2.456-1.403  c-0.89,0.243-1.475,1.05-1.474,1.93c0,0.174,0.023,0.35,0.071,0.526c0.001,0.002,0.646,2.368,1.226,4.528  c0.419,1.563,1.421,2.869,2.822,3.679c0.934,0.538,1.969,0.813,3.019,0.813C48.332,44.013,48.862,43.943,49.384,43.804z   M27.999,50.719c0.726-0.217,1.266-0.824,1.396-1.57l1.71-9.802c0.191-1.088-0.536-2.124-1.624-2.315  c-1.097-0.193-2.124,0.537-2.315,1.624l-1.019,5.872l-4.013-4.192c-0.758-0.805-2.025-0.84-2.827-0.085  c-0.805,0.758-0.842,2.023-0.085,2.827l6.748,7.096c0.384,0.407,0.913,0.629,1.456,0.629C27.617,50.803,27.811,50.775,27.999,50.719  z"/>
</svg>
